<svg width="28" height="28" viewBox="0 0 28 28" fill="none" xmlns="http://www.w3.org/2000/svg">
<path d="M23.334 14.3201C23.334 14.763 23.0048 15.1291 22.5777 15.1871L22.459 15.1951L4.95898 15.1951C4.47573 15.1951 4.08398 14.8033 4.08398 14.3201C4.08398 13.8771 4.41316 13.511 4.84025 13.4531L4.95898 13.4451L22.459 13.4451C22.9422 13.4451 23.334 13.8368 23.334 14.3201Z" fill="#212121"/>
<path d="M12.634 20.7284C12.9764 21.0694 12.9776 21.6234 12.6367 21.9658C12.3267 22.2771 11.8406 22.3064 11.4975 22.053L11.3992 21.9685L4.34088 14.9405C4.02864 14.6296 4.00024 14.1418 4.25568 13.7987L4.34083 13.7004L11.3992 6.67126C11.7416 6.33026 12.2956 6.33141 12.6366 6.67382C12.9466 6.98511 12.9738 7.47128 12.719 7.8133L12.634 7.91126L6.19867 14.3208L12.634 20.7284Z" fill="#212121"/>
</svg>
