<svg width="24" height="24" viewBox="0 0 24 24" fill="none" xmlns="http://www.w3.org/2000/svg">
<path d="M16.3499 6.32044C16.3499 3.93437 14.4156 2.00004 12.0295 2.00004C10.8805 1.99521 9.77692 2.44824 8.96273 3.25899C8.14854 4.06975 7.69086 5.17143 7.69086 6.32044M16.2126 21.222H7.86477C4.79841 21.222 2.446 20.1145 3.1142 15.6568L3.89223 9.61564C4.30413 7.39138 5.72289 6.54012 6.96774 6.54012H17.1462C18.4094 6.54012 19.7458 7.45545 20.2217 9.61564L20.9998 15.6568C21.5673 19.6111 19.279 21.222 16.2126 21.222Z" stroke="#212121" stroke-width="1.5" stroke-linecap="round" stroke-linejoin="round"/>
<path d="M14.9952 10.8241H14.9502" stroke="#212121" stroke-width="1.5" stroke-linecap="round" stroke-linejoin="round"/>
<path d="M9.16514 10.8241H9.11914" stroke="#212121" stroke-width="1.5" stroke-linecap="round" stroke-linejoin="round"/>
</svg>
