<svg width="24" height="24" viewBox="0 0 24 24" fill="none" xmlns="http://www.w3.org/2000/svg">
<path d="M7.92 13.4697C9.33 13.4697 10.46 14.6107 10.46 16.0307V19.4397C10.46 20.8497 9.33 21.9997 7.92 21.9997H4.54C3.14 21.9997 2 20.8497 2 19.4397V16.0307C2 14.6107 3.14 13.4697 4.54 13.4697H7.92ZM19.4601 13.4697C20.8601 13.4697 22.0001 14.6107 22.0001 16.0307V19.4397C22.0001 20.8497 20.8601 21.9997 19.4601 21.9997H16.0801C14.6701 21.9997 13.5401 20.8497 13.5401 19.4397V16.0307C13.5401 14.6107 14.6701 13.4697 16.0801 13.4697H19.4601ZM7.92 2C9.33 2 10.46 3.15 10.46 4.561V7.97C10.46 9.39 9.33 10.53 7.92 10.53H4.54C3.14 10.53 2 9.39 2 7.97V4.561C2 3.15 3.14 2 4.54 2H7.92ZM19.4601 2C20.8601 2 22.0001 3.15 22.0001 4.561V7.97C22.0001 9.39 20.8601 10.53 19.4601 10.53H16.0801C14.6701 10.53 13.5401 9.39 13.5401 7.97V4.561C13.5401 3.15 14.6701 2 16.0801 2H19.4601Z" fill="#1BAC4B"/>
</svg>
