<svg width="309" height="248" viewBox="0 0 309 248" fill="none" xmlns="http://www.w3.org/2000/svg">
<g clip-path="url(#clip0_2081_45)">
<path d="M169.531 67.7581C188.07 67.7581 203.099 52.7292 203.099 34.1901C203.099 15.651 188.07 0.62207 169.531 0.62207C150.992 0.62207 135.963 15.651 135.963 34.1901C135.963 52.7292 150.992 67.7581 169.531 67.7581Z" fill="#3BC86A"/>
<path d="M157.647 27.2003C157.647 27.1588 157.646 27.1172 157.646 27.0757C157.646 24.7324 158.339 22.4415 159.637 20.4908C160.936 18.5401 162.782 17.0167 164.943 16.1122C167.105 15.2076 169.486 14.9622 171.786 15.4068C174.087 15.8515 176.205 16.9663 177.874 18.6112C179.543 20.256 180.688 22.3575 181.166 24.6515C181.644 26.9455 181.433 29.3296 180.56 31.5041C179.687 33.6786 178.191 35.5464 176.259 36.8729C174.327 38.1993 172.047 38.9252 169.704 38.9592V49.751" stroke="#E6E6E6" stroke-width="4" stroke-linecap="round" stroke-linejoin="round"/>
<path d="M225.997 11.5933H249.088" stroke="#3BC86A" stroke-width="3" stroke-miterlimit="10" stroke-linecap="round"/>
<path d="M225.997 18.249H249.088" stroke="#3BC86A" stroke-width="3" stroke-miterlimit="10" stroke-linecap="round"/>
<path d="M225.997 24.9043H249.088" stroke="#3BC86A" stroke-width="3" stroke-miterlimit="10" stroke-linecap="round"/>
<path d="M11.1763 137.994H34.2677" stroke="#3BC86A" stroke-width="3" stroke-miterlimit="10" stroke-linecap="round"/>
<path d="M11.1763 144.649H34.2677" stroke="#3BC86A" stroke-width="3" stroke-miterlimit="10" stroke-linecap="round"/>
<path d="M11.1763 151.305H34.2677" stroke="#3BC86A" stroke-width="3" stroke-miterlimit="10" stroke-linecap="round"/>
<path d="M270.297 185.456H293.389" stroke="#3BC86A" stroke-width="3" stroke-miterlimit="10" stroke-linecap="round"/>
<path d="M270.297 192.111H293.389" stroke="#3BC86A" stroke-width="3" stroke-miterlimit="10" stroke-linecap="round"/>
<path d="M270.297 198.767H293.389" stroke="#3BC86A" stroke-width="3" stroke-miterlimit="10" stroke-linecap="round"/>
<path d="M298.131 152.678C303.582 152.678 308.001 148.259 308.001 142.808C308.001 137.356 303.582 132.938 298.131 132.938C292.68 132.938 288.261 137.356 288.261 142.808C288.261 148.259 292.68 152.678 298.131 152.678Z" fill="#B7E3C5"/>
<path d="M272.086 155.049C274.912 155.049 277.203 152.757 277.203 149.931C277.203 147.104 274.912 144.813 272.086 144.813C269.259 144.813 266.968 147.104 266.968 149.931C266.968 152.757 269.259 155.049 272.086 155.049Z" fill="#B7E3C5"/>
<path d="M285.081 125.968C289.118 125.968 292.392 122.695 292.392 118.657C292.392 114.619 289.118 111.346 285.081 111.346C281.043 111.346 277.77 114.619 277.77 118.657C277.77 122.695 281.043 125.968 285.081 125.968Z" fill="#B7E3C5"/>
<path d="M73.5384 218.3C80.0241 218.3 85.2818 213.042 85.2818 206.556C85.2818 200.071 80.0241 194.813 73.5384 194.813C67.0526 194.813 61.7949 200.071 61.7949 206.556C61.7949 213.042 67.0526 218.3 73.5384 218.3Z" fill="#B7E3C5"/>
<path d="M51.0984 204.309C54.4767 204.309 57.2154 201.57 57.2154 198.192C57.2154 194.814 54.4767 192.075 51.0984 192.075C47.7201 192.075 44.9814 194.814 44.9814 198.192C44.9814 201.57 47.7201 204.309 51.0984 204.309Z" fill="#B7E3C5"/>
<path d="M56.7169 180.927C58.6656 180.927 60.2453 179.347 60.2453 177.399C60.2453 175.45 58.6656 173.87 56.7169 173.87C54.7682 173.87 53.1885 175.45 53.1885 177.399C53.1885 179.347 54.7682 180.927 56.7169 180.927Z" fill="#B7E3C5"/>
<path d="M76.2495 188.353C80.9209 188.353 84.7079 184.566 84.7079 179.895C84.7079 175.224 80.9209 171.437 76.2495 171.437C71.578 171.437 67.791 175.224 67.791 179.895C67.791 184.566 71.578 188.353 76.2495 188.353Z" fill="#B7E3C5"/>
<path d="M82.1385 42.0084C88.6242 42.0084 93.8819 36.7507 93.8819 30.2649C93.8819 23.7792 88.6242 18.5215 82.1385 18.5215C75.6527 18.5215 70.395 23.7792 70.395 30.2649C70.395 36.7507 75.6527 42.0084 82.1385 42.0084Z" fill="#B7E3C5"/>
<path d="M82.615 12.438C85.9933 12.438 88.732 9.69937 88.732 6.32106C88.732 2.94276 85.9933 0.204102 82.615 0.204102C79.2367 0.204102 76.498 2.94276 76.498 6.32106C76.498 9.69937 79.2367 12.438 82.615 12.438Z" fill="#B7E3C5"/>
<path d="M123.358 15.1895C126.282 15.1895 128.652 12.8192 128.652 9.8953C128.652 6.97138 126.282 4.60107 123.358 4.60107C120.434 4.60107 118.063 6.97138 118.063 9.8953C118.063 12.8192 120.434 15.1895 123.358 15.1895Z" fill="#B7E3C5"/>
<path d="M104.097 8.27901C106.045 8.27901 107.625 6.69928 107.625 4.75058C107.625 2.80189 106.045 1.22217 104.097 1.22217C102.148 1.22217 100.568 2.80189 100.568 4.75058C100.568 6.69928 102.148 8.27901 104.097 8.27901Z" fill="#B7E3C5"/>
<path d="M108.197 32.4687C112.869 32.4687 116.656 28.6817 116.656 24.0102C116.656 19.3387 112.869 15.5518 108.197 15.5518C103.526 15.5518 99.7388 19.3387 99.7388 24.0102C99.7388 28.6817 103.526 32.4687 108.197 32.4687Z" fill="#B7E3C5"/>
<path d="M269.739 94.7321H70.8429L64.3574 78.2905H269.739C269.994 78.2905 270.247 78.3409 270.483 78.4386C270.719 78.5364 270.934 78.6797 271.114 78.8604C271.295 79.0411 271.438 79.2555 271.536 79.4916C271.634 79.7277 271.684 79.9807 271.684 80.2362V92.7865C271.684 93.042 271.634 93.295 271.536 93.5311C271.438 93.7671 271.295 93.9816 271.114 94.1623C270.934 94.343 270.719 94.4863 270.483 94.584C270.247 94.6818 269.994 94.7321 269.739 94.7321Z" fill="#3ECB6D"/>
<path d="M240.762 181.119H105.516C104.856 181.119 104.212 180.917 103.67 180.541C103.127 180.166 102.712 179.633 102.481 179.015L70.8428 94.7324H262.812L243.925 178.588C243.764 179.307 243.362 179.948 242.787 180.408C242.212 180.868 241.498 181.119 240.762 181.119Z" fill="#E6E6E6"/>
<path d="M253.086 137.927C239.25 138.815 225.414 139.279 211.578 139.595C204.66 139.792 197.743 139.836 190.825 139.952L170.071 140.071C156.235 140.083 142.399 139.927 128.564 139.601C114.728 139.287 100.892 138.82 87.0562 137.927C100.892 137.035 114.728 136.568 128.564 136.254C142.399 135.943 156.235 135.787 170.071 135.784L190.825 135.903C197.743 136.019 204.66 136.063 211.578 136.26C225.414 136.576 239.25 137.04 253.086 137.927Z" fill="#3BC86A"/>
<path d="M226.023 94.7324C225.234 102.271 224.03 109.716 222.7 117.132C221.353 124.545 219.85 131.923 218.19 139.265C216.54 146.609 214.737 153.92 212.782 161.195C211.795 164.831 210.774 168.459 209.683 172.072C209.119 173.874 208.582 175.682 207.995 177.479L207.544 178.844C207.366 179.345 207.077 179.799 206.699 180.172C206.344 180.524 205.915 180.791 205.443 180.955C204.971 181.119 204.469 181.175 203.973 181.119C204.421 181.066 204.852 180.916 205.237 180.681C205.622 180.445 205.952 180.129 206.203 179.754C206.438 179.409 206.592 179.016 206.655 178.603L206.836 177.217C207.076 175.342 207.366 173.479 207.629 171.609C208.192 167.878 208.824 164.162 209.492 160.454C210.839 153.042 212.344 145.665 214.007 138.323C215.664 130.98 217.468 123.67 219.421 116.394C221.4 109.123 223.503 101.881 226.023 94.7324Z" fill="#3BC86A"/>
<path d="M148.735 181.119C148.219 181.174 147.696 181.109 147.21 180.928C146.723 180.748 146.285 180.456 145.93 180.076C145.582 179.677 145.303 179.222 145.104 178.731L144.463 177.403C143.609 175.633 142.804 173.845 141.972 172.066C140.344 168.496 138.782 164.901 137.252 161.294C134.206 154.074 131.31 146.798 128.564 139.466C125.809 132.137 123.2 124.754 120.737 117.315C118.296 109.869 115.977 102.376 114.062 94.7324C117.649 101.749 120.833 108.916 123.895 116.13C126.94 123.35 129.835 130.626 132.578 137.959C135.327 145.29 137.934 152.675 140.398 160.112C141.62 163.835 142.81 167.57 143.933 171.33C144.477 173.217 145.048 175.093 145.57 176.988L145.961 178.409C146.05 178.855 146.211 179.284 146.437 179.678C146.687 180.076 147.024 180.411 147.422 180.661C147.82 180.91 148.268 181.067 148.735 181.119Z" fill="#3BC86A"/>
<path d="M139.099 247.393C146.499 247.393 152.497 241.395 152.497 233.995C152.497 226.595 146.499 220.596 139.099 220.596C131.699 220.596 125.7 226.595 125.7 233.995C125.7 241.395 131.699 247.393 139.099 247.393Z" fill="#3ECB6D"/>
<path d="M139.099 240.178C142.514 240.178 145.282 237.41 145.282 233.995C145.282 230.579 142.514 227.811 139.099 227.811C135.683 227.811 132.915 230.579 132.915 233.995C132.915 237.41 135.683 240.178 139.099 240.178Z" fill="#DBE8EC"/>
<path d="M216.386 247.393C223.786 247.393 229.785 241.395 229.785 233.995C229.785 226.595 223.786 220.596 216.386 220.596C208.987 220.596 202.988 226.595 202.988 233.995C202.988 241.395 208.987 247.393 216.386 247.393Z" fill="#3ECB6D"/>
<path d="M216.387 240.178C219.802 240.178 222.571 237.41 222.571 233.995C222.571 230.579 219.802 227.811 216.387 227.811C212.971 227.811 210.203 230.579 210.203 233.995C210.203 237.41 212.971 240.178 216.387 240.178Z" fill="#DBE8EC"/>
<path d="M171.257 94.7324C172.572 101.879 173.461 109.05 174.222 116.229C174.965 123.409 175.548 130.599 175.971 137.798C176.403 144.997 176.68 152.205 176.801 159.422C176.9 166.64 176.867 173.867 176.404 181.119C175.084 173.973 174.194 166.801 173.434 159.622C172.692 152.442 172.111 145.252 171.691 138.053C171.264 130.854 170.99 123.646 170.867 116.429C170.77 109.21 170.8 101.984 171.257 94.7324Z" fill="#3BC86A"/>
<path d="M239.057 213.796H117.853C117.419 213.796 116.995 213.664 116.638 213.418C116.28 213.173 116.006 212.824 115.85 212.419L45.6538 29.4351H8.47217C7.9034 29.4351 7.35794 29.2091 6.95576 28.8069C6.55358 28.4048 6.32764 27.8593 6.32764 27.2905C6.32764 26.7218 6.55358 26.1763 6.95576 25.7741C7.35794 25.3719 7.9034 25.146 8.47217 25.146H47.128C47.5618 25.146 47.9855 25.2776 48.3429 25.5234C48.7004 25.7692 48.9749 26.1176 49.1303 26.5226L119.327 209.507H239.057C239.626 209.507 240.171 209.733 240.573 210.135C240.976 210.537 241.201 211.082 241.201 211.651C241.201 212.22 240.976 212.765 240.573 213.168C240.171 213.57 239.626 213.796 239.057 213.796Z" fill="#3ECB6D"/>
<path d="M27.1203 21.1069H1.67187C0.88228 21.1069 0.242188 21.747 0.242188 22.5366V32.8018C0.242188 33.5914 0.88228 34.2315 1.67187 34.2315H27.1203C27.9099 34.2315 28.55 33.5914 28.55 32.8018V22.5366C28.55 21.747 27.9099 21.1069 27.1203 21.1069Z" fill="#3ECB6D"/>
<path d="M169.531 58.3162C170.597 58.3162 171.461 57.4521 171.461 56.3861C171.461 55.3202 170.597 54.4561 169.531 54.4561C168.465 54.4561 167.601 55.3202 167.601 56.3861C167.601 57.4521 168.465 58.3162 169.531 58.3162Z" fill="#E6E6E6"/>
</g>
<defs>
<clipPath id="clip0_2081_45">
<rect width="309" height="248" fill="white"/>
</clipPath>
</defs>
</svg>
