<svg width="26" height="24" viewBox="0 0 26 24" fill="none" xmlns="http://www.w3.org/2000/svg">
<path d="M12.998 3.64211L12.4382 4.1412L13 4.77134L13.5596 4.13928L12.998 3.64211ZM16.4219 1.32961L16.1907 0.616142L16.1903 0.616268L16.4219 1.32961ZM20.1504 1.21242L19.9634 1.93874L19.9643 1.93896L20.1504 1.21242ZM23.2246 2.9761L23.7606 2.45144L23.7605 2.45139L23.2246 2.9761ZM21.5977 14.9663L21.0283 14.4782L21.0282 14.4782L21.5977 14.9663ZM13.8613 21.7495L13.4186 21.1442L13.4181 21.1445L13.8613 21.7495ZM12.2012 21.7925L12.6137 21.1662L11.4512 20.4004V21.7925H12.2012ZM12.2012 21.7945L11.785 22.4184L12.9512 23.1962V21.7945H12.2012ZM12.1953 21.7906L12.6115 21.1666L11.4453 20.3888V21.7906H12.1953ZM12.1953 21.7925L11.8596 22.4632L12.9453 23.0066V21.7925H12.1953ZM12.1914 21.7906L11.7555 22.4009L11.8033 22.435L11.8557 22.4612L12.1914 21.7906ZM12.1504 21.7613L12.5863 21.1509L12.5739 21.1421L12.5612 21.1338L12.1504 21.7613ZM7.33984 18.148L7.83351 17.5834L7.83348 17.5833L7.33984 18.148ZM2.74414 2.96242L3.28157 3.48556L3.2818 3.48532L2.74414 2.96242ZM5.82812 1.19875L5.64594 0.471217L5.64566 0.471287L5.82812 1.19875ZM9.54883 1.33352L9.31861 2.04731L9.31925 2.04752L9.54883 1.33352ZM18.6868 3.77366C18.2856 3.67049 17.8768 3.91206 17.7736 4.31322C17.6705 4.71438 17.912 5.12322 18.3132 5.22639L18.6868 3.77366ZM13.5596 4.13928C14.5163 3.05868 15.5839 2.39022 16.6535 2.04296L16.1903 0.616268C14.8536 1.05025 13.5618 1.87399 12.4365 3.14494L13.5596 4.13928ZM16.6531 2.04308C17.7781 1.67851 18.9199 1.67007 19.9634 1.93874L20.3374 0.486113C19.0293 0.14931 17.5969 0.160403 16.1907 0.616143L16.6531 2.04308ZM19.9643 1.93896C21.0145 2.20802 21.9614 2.75802 22.6887 3.5008L23.7605 2.45139C22.8393 1.51058 21.6496 0.822299 20.3365 0.48589L19.9643 1.93896ZM22.6887 3.50076C23.6521 4.48493 24.25 5.79658 24.25 7.27688H25.75C25.75 5.37437 24.9768 3.69382 23.7606 2.45144L22.6887 3.50076ZM24.25 7.27688C24.25 9.70155 23.0825 12.0822 21.0283 14.4782L22.167 15.4545C24.3393 12.9208 25.75 10.2038 25.75 7.27688H24.25ZM21.0282 14.4782C19.1044 16.7227 16.4429 18.9323 13.4186 21.1442L14.3041 22.3549C17.3579 20.1215 20.13 17.8311 22.1671 15.4544L21.0282 14.4782ZM13.4181 21.1445C13.1741 21.3233 12.8516 21.3229 12.6137 21.1662L11.7886 22.4188C12.5351 22.9106 13.5408 22.9141 14.3045 22.3546L13.4181 21.1445ZM11.4512 21.7925V21.7945H12.9512V21.7925H11.4512ZM12.6173 21.1705L12.6115 21.1666L11.7791 22.4145L11.785 22.4184L12.6173 21.1705ZM11.4453 21.7906V21.7925H12.9453V21.7906H11.4453ZM12.531 21.1218L12.5271 21.1199L11.8557 22.4612L11.8596 22.4632L12.531 21.1218ZM12.6273 21.1802L12.5863 21.1509L11.7145 22.3716L11.7555 22.4009L12.6273 21.1802ZM12.5612 21.1338C11.7019 20.5712 10.8769 19.9961 10.0997 19.4146L9.2011 20.6157C10.0059 21.2178 10.8567 21.8107 11.7396 22.3887L12.5612 21.1338ZM10.0997 19.4146C9.32301 18.8336 8.56445 18.2225 7.83351 17.5834L6.84617 18.7126C7.60742 19.3782 8.39574 20.0132 9.2011 20.6157L10.0997 19.4146ZM7.83348 17.5833C4.00518 14.2365 1.75 10.711 1.75 7.27493H0.25C0.25 11.3662 2.90888 15.2704 6.84621 18.7126L7.83348 17.5833ZM1.75 7.27493C1.75 5.76061 2.33918 4.4537 3.28157 3.48556L2.20671 2.43929C1.00457 3.67428 0.25 5.35174 0.25 7.27493H1.75ZM3.2818 3.48532C4.01273 2.73375 4.95922 2.18993 6.01059 1.92622L5.64566 0.471287C4.32984 0.801328 3.13571 1.48406 2.20648 2.43953L3.2818 3.48532ZM6.01031 1.92629C7.04672 1.66675 8.18893 1.68295 9.31861 2.04731L9.77905 0.619726C8.37748 0.167677 6.94938 0.144813 5.64594 0.471217L6.01031 1.92629ZM9.31925 2.04752C10.4014 2.39548 11.4803 3.06673 12.4382 4.1412L13.5579 3.14303C12.4298 1.87765 11.1259 1.05281 9.77841 0.619521L9.31925 2.04752ZM18.3132 5.22639C19.1752 5.44807 19.7892 6.1226 20.2084 6.84641C20.4131 7.19975 20.5562 7.53993 20.6479 7.79216C20.6935 7.91751 20.7257 8.01912 20.7459 8.08717C20.756 8.12114 20.763 8.14659 20.7672 8.16226C20.7694 8.17009 20.7708 8.17547 20.7715 8.17823C20.7718 8.17962 20.772 8.18034 20.772 8.1804C20.772 8.18042 20.772 8.18028 20.7719 8.17997C20.7719 8.17981 20.7718 8.17961 20.7718 8.17937C20.7717 8.17925 20.7717 8.17903 20.7717 8.17897C20.7716 8.17875 20.7715 8.17851 21.5 8.00002C22.2285 7.82154 22.2284 7.82128 22.2283 7.82101C22.2283 7.8209 22.2282 7.82062 22.2282 7.82041C22.2281 7.81999 22.228 7.81953 22.2278 7.81902C22.2276 7.818 22.2273 7.8168 22.2269 7.81543C22.2262 7.81268 22.2254 7.80922 22.2243 7.80507C22.2222 7.79678 22.2193 7.78573 22.2156 7.77209C22.2083 7.74483 22.1978 7.70714 22.1839 7.66033C22.1561 7.56684 22.1147 7.43636 22.0576 7.27952C21.9441 6.96738 21.766 6.54281 21.5065 6.09466C20.9973 5.21547 20.1113 4.14 18.6868 3.77366L18.3132 5.22639Z" fill="white"/>
</svg>
