<svg width="364" height="452" viewBox="0 0 364 452" fill="none" xmlns="http://www.w3.org/2000/svg">
<g filter="url(#filter0_b_1853_738)">
<path d="M80 17.5C80 27.165 72.165 35 62.5 35C52.835 35 45 27.165 45 17.5C45 7.83502 52.835 0 62.5 0C72.165 0 80 7.83502 80 17.5Z" fill="#E8F7ED"/>
<path d="M236 9.5C236 13.0899 233.09 16 229.5 16C225.91 16 223 13.0899 223 9.5C223 5.91015 225.91 3 229.5 3C233.09 3 236 5.91015 236 9.5Z" fill="#E8F7ED"/>
<path d="M361 69C361 76.1797 355.18 82 348 82C340.82 82 335 76.1797 335 69C335 61.8203 340.82 56 348 56C355.18 56 361 61.8203 361 69Z" fill="#E8F7ED"/>
<path d="M364 168C364 170.761 361.761 173 359 173C356.239 173 354 170.761 354 168C354 165.239 356.239 163 359 163C361.761 163 364 165.239 364 168Z" fill="#E8F7ED"/>
<path d="M322 432C322 443.046 313.046 452 302 452C290.954 452 282 443.046 282 432C282 420.954 290.954 412 302 412C313.046 412 322 420.954 322 432Z" fill="#E8F7ED"/>
<path d="M211 419.5C211 423.642 207.642 427 203.5 427C199.358 427 196 423.642 196 419.5C196 415.358 199.358 412 203.5 412C207.642 412 211 415.358 211 419.5Z" fill="#E8F7ED"/>
<path d="M114 436.5C114 441.747 109.747 446 104.5 446C99.2533 446 95 441.747 95 436.5C95 431.253 99.2533 427 104.5 427C109.747 427 114 431.253 114 436.5Z" fill="#E8F7ED"/>
<path d="M18 374.5C18 376.985 15.9853 379 13.5 379C11.0147 379 9 376.985 9 374.5C9 372.015 11.0147 370 13.5 370C15.9853 370 18 372.015 18 374.5Z" fill="#E8F7ED"/>
<path d="M60 100.5C60 102.433 58.433 104 56.5 104C54.567 104 53 102.433 53 100.5C53 98.567 54.567 97 56.5 97C58.433 97 60 98.567 60 100.5Z" fill="#E8F7ED"/>
<path d="M13 157.5C13 161.09 10.0899 164 6.5 164C2.91015 164 0 161.09 0 157.5C0 153.91 2.91015 151 6.5 151C10.0899 151 13 153.91 13 157.5Z" fill="#E8F7ED"/>
</g>
<defs>
<filter id="filter0_b_1853_738" x="-4" y="-4" width="372" height="460" filterUnits="userSpaceOnUse" color-interpolation-filters="sRGB">
<feFlood flood-opacity="0" result="BackgroundImageFix"/>
<feGaussianBlur in="BackgroundImageFix" stdDeviation="2"/>
<feComposite in2="SourceAlpha" operator="in" result="effect1_backgroundBlur_1853_738"/>
<feBlend mode="normal" in="SourceGraphic" in2="effect1_backgroundBlur_1853_738" result="shape"/>
</filter>
</defs>
</svg>
