<svg width="350" height="350" viewBox="0 0 350 350" fill="none" xmlns="http://www.w3.org/2000/svg">
<g clip-path="url(#clip0_1853_548)">
<path d="M26.561 199.247H114.947V131.434H26.561V199.247Z" fill="#D9D9D9"/>
<path d="M26.561 148.638H114.947V131.434H26.561V148.638Z" fill="#B2B2B2"/>
<path d="M68.3911 199.257H73.7698V131.434H68.3911V199.257Z" fill="#2F2E40"/>
<path d="M26.418 165.076H114.983V159.707H26.418V165.076Z" fill="#2F2E40"/>
<path d="M71.2499 131.689L45.4983 113.136L38.2944 123.564L71.2499 131.689Z" fill="#2F2E40"/>
<path d="M97.4323 117.76L71.25 131.689L103.519 127.065L97.4323 117.76Z" fill="#2F2E40"/>
<path d="M71.25 131.689L84.5922 117.184H75.1237L71.25 131.689Z" fill="#2F2E40"/>
<path d="M81.723 223.425L33.8677 203.825L36.2859 197.898L84.1415 217.489L81.723 223.425Z" fill="#2F2E40"/>
<path d="M33.6113 203.796H98.5838V197.851H33.6113V203.796Z" fill="#2F2E40"/>
<path d="M159.644 283.509H228.949V268.731H159.644V283.509Z" fill="#231F20"/>
<path d="M62.4475 243.243H43.3259C39.6266 243.243 36.583 240.213 36.583 236.495V234.966C36.583 231.248 39.6266 228.21 43.3259 228.21H62.4475C66.1572 228.21 69.2006 231.248 69.2006 234.966V236.495C69.2006 240.213 66.1572 243.243 62.4475 243.243Z" fill="#2F2E40"/>
<path d="M62.3045 227.067H50.3766L44.1665 244.393H62.3045C67.0695 244.393 70.9839 240.496 70.9839 235.73C70.9839 230.965 67.0695 227.067 62.3045 227.067Z" fill="#2F2E40"/>
<path d="M58.943 254.321H42.1679C39.6574 254.321 37.5977 252.264 37.5977 249.754V248.716C37.5977 246.205 39.6574 244.148 42.1679 244.148H58.943C61.4535 244.148 63.5031 246.205 63.5031 248.716V249.754C63.5031 252.264 61.4535 254.321 58.943 254.321Z" fill="#FBAD50"/>
<path d="M58.0307 243.375H48.5622L43.623 255.095H58.0307C61.8223 255.095 64.917 252.462 64.917 249.234C64.917 246.008 61.8223 243.375 58.0307 243.375Z" fill="#2F2E40"/>
<path d="M257.896 172.617L257.435 171.428C254.955 164.955 247.618 161.689 241.142 164.18L239.933 164.643L249.155 189.49L250.641 188.914C257.128 186.432 260.376 179.1 257.896 172.617Z" fill="#1BAC4B"/>
<path d="M92.1239 217.762C92.1239 217.762 59.0045 222.858 52.8867 236.362C46.7791 249.876 55.6944 263.381 55.6944 263.381C55.6944 263.381 156.847 290.134 165.26 287.331C173.663 284.529 162.964 269.496 167.043 261.597C171.111 253.699 177.485 248.603 179.78 239.675C182.076 230.757 177.751 214.394 177.751 214.394L92.3802 216.744L92.1239 217.762Z" fill="#2F2E40"/>
<path d="M134.59 297.9C134.59 318.237 118.112 334.724 97.7809 334.724C77.4502 334.724 60.9619 318.237 60.9619 297.9C60.9619 277.564 77.4502 261.087 97.7809 261.087C118.112 261.087 134.59 277.564 134.59 297.9Z" fill="#231F20"/>
<path d="M118.009 297.9C118.009 309.074 108.94 318.124 97.7805 318.124C86.611 318.124 77.5625 309.074 77.5625 297.9C77.5625 286.737 86.611 277.677 97.7805 277.677C108.94 277.677 118.009 286.737 118.009 297.9Z" fill="#95979A"/>
<path d="M106.44 297.9C106.44 302.685 102.566 306.573 97.7805 306.573C92.9848 306.573 89.1113 302.685 89.1113 297.9C89.1113 293.116 92.9848 289.237 97.7805 289.237C102.566 289.237 106.44 293.116 106.44 297.9Z" fill="#664624"/>
<path d="M317.126 297.9C317.126 318.237 300.638 334.724 280.297 334.724C259.966 334.724 243.478 318.237 243.478 297.9C243.478 277.564 259.966 261.087 280.297 261.087C300.638 261.087 317.126 277.564 317.126 297.9Z" fill="#231F20"/>
<path d="M300.526 297.9C300.526 309.074 291.477 318.124 280.297 318.124C269.138 318.124 260.079 309.074 260.079 297.9C260.079 286.737 269.138 277.677 280.297 277.677C291.477 277.677 300.526 286.737 300.526 297.9Z" fill="#95979A"/>
<path d="M288.977 297.9C288.977 302.685 285.083 306.573 280.297 306.573C275.512 306.573 271.638 302.685 271.638 297.9C271.638 293.116 275.512 289.237 280.297 289.237C285.083 289.237 288.977 293.116 288.977 297.9Z" fill="#664624"/>
<path d="M142.828 289.369H238.122V280.452H142.828V289.369Z" fill="#2F2E40"/>
<path d="M153.824 294.305C153.844 293.758 153.875 293.211 153.875 292.663C153.875 261.654 128.738 236.523 97.7295 236.523C66.7311 236.523 41.5942 261.654 41.5942 292.663C41.5942 293.211 41.625 293.758 41.6453 294.305H153.824Z" fill="#2F2E40"/>
<path d="M215.124 154.526L227.872 149.94C227.872 149.94 255.714 176.995 267.181 206.296C278.648 235.598 275.338 251.915 268.708 266.693C261.217 283.396 252.404 282.49 252.404 282.49L218.25 281.981C218.25 281.981 239.912 255.991 240.671 223.878C241.491 189.867 215.124 154.526 215.124 154.526Z" fill="#2F2E40"/>
<path d="M323.582 278.763C323.142 277.461 322.64 276.149 322.066 274.865C311.706 251.556 284.407 241.053 261.094 251.415C242.884 259.511 232.493 277.96 233.764 296.759L323.582 278.763Z" fill="#2F2E40"/>
<path d="M217.993 132.633H207.51C203.114 132.633 199.507 129.028 199.507 124.621V122.809C199.507 118.402 203.114 114.798 207.51 114.798H217.993C222.41 114.798 226.007 118.402 226.007 122.809V124.621C226.007 129.028 222.41 132.633 217.993 132.633Z" fill="#231F20"/>
<path d="M226.324 155.933L222.646 154.177C222.656 154.139 224.9 149.166 223.732 140.55C222.564 131.869 218.086 126.055 218.034 125.989L221.242 123.47C221.457 123.744 226.447 130.17 227.78 140.003C229.112 149.921 226.437 155.696 226.324 155.933Z" fill="#231F20"/>
<path d="M75.5645 197.691V202.56C75.5645 212.251 80.5141 220.179 86.5497 220.179H174.667C180.703 220.179 185.642 212.251 185.642 202.56V197.691H75.5645Z" fill="#231F20"/>
<path d="M162.401 91.8934L163.948 84.8156L146.159 75.0774L144.591 80.654L162.401 91.8934Z" fill="#1BAC4B"/>
<path d="M153.045 113.759C170.066 117.619 160.874 97.6033 160.946 84.9386L164.368 59.2801L157.533 56.4866C157.533 56.4866 153.414 63.2336 148.034 67.0938C146.558 73.0865 144.929 79.5691 144.324 81.2116C144.663 84.5708 136.024 109.89 153.045 113.759Z" fill="#664624"/>
<path d="M178.048 39.6985C180.108 46.9556 176.071 51.6644 177.884 54.929C179.698 58.195 180.672 58.0063 180.651 59.2515C180.62 60.5067 178.335 60.6482 178.018 62.3094C177.618 64.3188 176.604 67.2536 176.265 69.3586C175.835 71.9632 176.235 73.7084 174.011 74.558C169.912 76.1341 163.794 72.8027 160.31 70.9253C155.371 68.2538 151.293 61.3562 151.354 56.5902C147.798 55.0991 136.178 45.5865 144.212 35.6311C152.245 25.6747 174.185 26.0714 178.048 39.6985Z" fill="#815932"/>
<path d="M178.048 39.6985C176.737 38.6132 165.803 36.5749 163.292 42.2459C161.202 46.974 162.36 49.3709 156.273 51.2872C153.25 46.6153 149.294 51.8722 151.887 54.0326C152.45 54.5141 151.907 56.0718 151.907 56.0718L153.096 62.8564L148.095 67.103C148.095 67.103 137.13 61.8185 137.981 48.3706C138.842 34.6783 146.056 27.2417 154.623 27.3083C169.932 27.421 176.501 33.7252 178.048 39.6985Z" fill="black"/>
<path d="M178.182 39.2834C178.776 36.9807 177.485 25.722 173.396 22.3627C169.297 18.9936 159.777 16.6725 156.303 17.0218C152.83 17.361 143.74 21.6167 140.379 25.8643C137.161 29.9213 138.678 40.0193 138.944 42.8689C154.387 44.0115 164.184 43.0391 178.182 39.2834Z" fill="#1BAC4B"/>
<path d="M160.823 42.747C160.823 42.747 169.041 44.2656 183.285 45.1438C193.994 45.7946 196.381 38.5568 196.381 38.5568L178.223 35.0552C178.223 35.0552 177.331 36.4521 172.658 38.8019C167.965 41.1516 160.823 42.747 160.823 42.747Z" fill="#1BAC4B"/>
<path d="M176.02 53.8346C175.805 54.8164 174.831 55.4394 173.847 55.2222C172.884 55.005 172.259 54.0428 172.474 53.061C172.679 52.0793 173.653 51.4574 174.636 51.6735C175.62 51.8907 176.235 52.8623 176.02 53.8346Z" fill="black"/>
<path d="M176.44 68.4906C176.819 67.103 177.27 65.5935 177.567 64.1589L172.146 63.6025C172.146 63.6025 173.847 67.056 176.44 68.4906Z" fill="white"/>
<path d="M156.232 53.9761C155.443 56.7418 153.414 58.572 151.713 58.0812C150.012 57.5903 149.284 54.9578 150.094 52.1929C150.893 49.4363 152.912 47.5969 154.613 48.0878C156.314 48.5787 157.031 51.2206 156.232 53.9761Z" fill="#815932"/>
<path d="M177.751 50.2582L170.496 49.4362L170.547 49.0408C170.711 48.0212 171.88 47.3612 173.16 47.5589L178.223 47.9935L177.751 50.2582Z" fill="black"/>
<path d="M156.919 17.2289L153.783 17.8613C153.24 17.975 152.727 17.6256 152.614 17.0968C152.502 16.5599 152.85 16.0401 153.383 15.9264L156.539 15.2951C157.062 15.1908 157.595 15.5311 157.697 16.0691C157.81 16.5968 157.462 17.1254 156.919 17.2289Z" fill="#1BAC4B"/>
<path d="M142.736 46.7668C142.47 48.7763 140.605 50.1732 138.596 49.8996C136.598 49.6157 135.194 47.767 135.461 45.7565C135.748 43.747 137.592 42.3493 139.611 42.6238C141.619 42.9068 143.013 44.7563 142.736 46.7668Z" fill="black"/>
<path d="M142.296 53.0517C142.009 55.0614 140.164 56.4672 138.156 56.1844C136.147 55.9107 134.744 54.0519 135.02 52.0518C135.307 50.0412 137.152 48.6352 139.16 48.918C141.158 49.1917 142.573 51.0505 142.296 53.0517Z" fill="black"/>
<path d="M144.621 58.6951C144.355 60.6953 142.49 62.1012 140.492 61.8276C138.483 61.5448 137.079 59.6951 137.356 57.6845C137.633 55.6751 139.488 54.2784 141.496 54.5521C143.505 54.8257 144.908 56.6846 144.621 58.6951Z" fill="black"/>
<path d="M148.556 63.2806C148.28 65.2821 146.425 66.6881 144.417 66.4145C142.408 66.1317 141.004 64.2809 141.281 62.2714C141.557 60.2609 143.423 58.8642 145.431 59.1387C147.429 59.4113 148.833 61.2712 148.556 63.2806Z" fill="black"/>
<path d="M153.517 65.0073C153.23 67.0087 151.385 68.4144 149.377 68.1316C147.358 67.858 145.964 66.0085 146.241 63.9979C146.528 61.9885 148.372 60.5825 150.381 60.8653C152.39 61.1389 153.793 62.9978 153.517 65.0073Z" fill="black"/>
<path d="M163.856 96.0644L159.367 89.0818L143.064 79.6633C143.064 79.6633 138.299 85.4767 136.987 96.8953C136.126 104.397 123.061 161.491 123.061 161.491L156.016 165.341C156.016 165.341 163.661 136.766 166.244 125.074C167.576 119.072 163.856 96.0644 163.856 96.0644Z" fill="#1BAC4B"/>
<path d="M159.296 90.9223L160.864 83.8351L143.064 74.1052L141.496 79.6829L159.296 90.9223Z" fill="#1BAC4B"/>
<path d="M163.856 96.0642L160.772 84.25L159.583 89.6666L163.856 96.0642Z" fill="#1BAC4B"/>
<path d="M119.956 166.539C119.956 166.539 112.507 182.289 117.436 191.019C124.527 203.541 180.898 204.221 180.898 204.221L182.732 265.844L199.814 265.23L206.527 184.696L155.084 171.919L119.956 166.539Z" fill="#1BAC4B"/>
<path d="M156.314 165.152L122.887 161.444C122.887 161.444 121.831 163.123 121.104 164.416C120.366 165.718 119.177 168.002 119.177 168.002L155.064 171.994L156.314 165.152Z" fill="#664624"/>
<path d="M135.46 169.814L132.991 169.54L133.759 162.651L136.229 162.925L135.46 169.814Z" fill="#1BAC4B"/>
<path d="M203.011 159.906L207.817 154.413L174.646 136.795C174.646 136.795 155.31 90.3842 152.932 90.0624C152.932 90.0624 146.999 89.0437 144.386 94.2341C141.773 99.4244 165.034 146.411 165.034 146.411L203.011 159.906Z" fill="#815932"/>
<path d="M148.321 116.515C150.104 116.251 153.988 115.372 156.303 114.457C160.003 113.013 163.036 110.361 164.02 108.861L158.353 96.8297C155.002 89.3265 151.006 88.3357 147.204 89.6576C143.402 90.9877 141.752 92.7246 142.623 98.4713C143.494 104.218 148.321 116.515 148.321 116.515Z" fill="#1BAC4B"/>
<path d="M154.633 110.314C152.471 111.126 149.079 111.947 146.907 112.363C147.716 114.807 148.321 116.515 148.321 116.515C150.104 116.25 153.988 115.372 156.304 114.457C160.003 113.013 163.036 110.361 164.02 108.861L162.298 105.2C161.058 106.596 158.005 109.05 154.633 110.314Z" fill="white"/>
<path d="M152.379 171.739L150.207 171.493C151.139 172.362 152.082 173.39 152.861 174.551C155.853 178.959 154.746 181.611 154.51 182.328L139.426 170.267L137.131 170.002L155.597 185.366C155.597 185.366 155.996 184.828 156.283 184.253C156.56 183.686 157.974 179.533 154.285 174.098C153.691 173.239 153.045 172.456 152.379 171.739Z" fill="#1BAC4B"/>
<path d="M181.164 276.819V266.901H197.017C197.017 266.901 209.396 265.929 211.179 268.835C212.203 270.496 211.814 276.819 211.814 276.819H181.164Z" fill="#664624"/>
<path d="M181.123 276.772H211.906V274.252H181.123V276.772Z" fill="#9D764B"/>
<path d="M180.621 255.699H201.239L201.864 266.919H181.123L180.621 255.699Z" fill="#1BAC4B"/>
<path d="M202.93 159.906C202.93 159.906 207.869 164.68 210.502 161.509C214.017 157.273 216.856 154.215 219.264 157.045C224.756 163.511 225.208 160.764 225.208 160.764C225.208 160.764 223.916 152.167 216.589 151.365C211.353 150.789 205.707 154.696 205.707 154.696L202.93 159.906Z" fill="#815932"/>
<path d="M224.07 162.425C224.07 166.087 221.098 169.059 217.429 169.059C213.761 169.059 210.799 166.087 210.799 162.425C210.799 158.754 213.761 155.79 217.429 155.79C221.098 155.79 224.07 158.754 224.07 162.425Z" fill="#231F20"/>
</g>
<defs>
<clipPath id="clip0_1853_548">
<rect width="350" height="350" fill="white"/>
</clipPath>
</defs>
</svg>
