<svg width="400" height="219" viewBox="0 0 400 219" fill="none" xmlns="http://www.w3.org/2000/svg">
<g clip-path="url(#clip0_1853_241)">
<path d="M53.7895 113.984H40.9882C40.5381 113.984 40.1064 114.163 39.7881 114.481C39.4698 114.8 39.291 115.231 39.291 115.681V121.3C39.291 121.75 39.4698 122.182 39.7881 122.5C40.1064 122.819 40.5381 122.997 40.9882 122.997H43.1096V131.416H51.6681V122.997H53.7895C54.2396 122.997 54.6713 122.819 54.9896 122.5C55.3079 122.182 55.4867 121.75 55.4867 121.3V115.681C55.4867 115.231 55.3079 114.8 54.9896 114.481C54.6713 114.163 54.2396 113.984 53.7895 113.984Z" fill="#1BAC4B"/>
<path d="M66.6113 165.408C58.7714 153.936 54.7635 140.277 55.1618 126.388C55.1689 126.067 55.0649 125.754 54.8674 125.502C54.6699 125.249 54.3911 125.073 54.0783 125.003V122.575H40.5585V124.969H40.3722C40.1815 124.969 39.9929 125.009 39.8182 125.085C39.6435 125.162 39.4864 125.273 39.3568 125.413C39.2271 125.553 39.1277 125.718 39.0647 125.898C39.0017 126.078 38.9764 126.269 38.9906 126.459C40.0557 141.307 36.459 154.621 28.2007 166.404C27.7254 167.081 27.4826 167.894 27.5087 168.721L28.9871 214.45C29.0226 215.469 29.4507 216.436 30.182 217.148C30.9133 217.86 31.8913 218.262 32.9118 218.27H63.4917C64.5239 218.262 65.5121 217.851 66.2456 217.124C66.9792 216.398 67.4001 215.414 67.4189 214.382L67.9885 169.983C68.0054 168.353 67.525 166.757 66.6113 165.408Z" fill="#3F3D56"/>
<path opacity="0.2" d="M51.1206 115.815C51.1206 116.786 50.7348 117.717 50.0482 118.404C49.3615 119.091 48.4301 119.477 47.459 119.477C46.4879 119.477 45.5565 119.091 44.8698 118.404C44.1831 117.717 43.7974 116.786 43.7974 115.815" fill="black"/>
<path d="M61.7701 180.598H58.0671C57.7135 178.304 56.5507 176.212 54.7889 174.701C53.027 173.19 50.7826 172.359 48.4615 172.359C46.1404 172.359 43.8959 173.19 42.1341 174.701C40.3723 176.212 39.2094 178.304 38.8559 180.598H35.1527C34.7587 180.598 34.3693 180.683 34.0113 180.848C33.6533 181.012 33.3352 181.252 33.0786 181.551C32.8221 181.85 32.6332 182.201 32.525 182.58C32.4168 182.959 32.3918 183.357 32.4517 183.746L36.474 209.891H59.5704L64.456 183.834C64.53 183.439 64.5161 183.033 64.4153 182.645C64.3146 182.256 64.1294 181.894 63.8729 181.585C63.6165 181.276 63.2951 181.028 62.9317 180.857C62.5682 180.686 62.1716 180.598 61.7701 180.598Z" fill="#1BAC4B"/>
<path d="M372.952 138.574L372.063 174.076L370.963 218.1H333.52L332.231 166.52L331.532 138.574H372.952Z" fill="#E6E6E6"/>
<path d="M354.727 119.687H349.425V189.934H354.727V119.687Z" fill="#1BAC4B"/>
<path d="M370.3 165.324L369.298 215.784H335.169L333.994 156.665C337.068 155.801 340.288 155.58 343.452 156.015C346.616 156.45 349.657 157.533 352.384 159.194C358.086 162.567 364.492 164.382 370.3 165.324Z" fill="#3F3D56"/>
<path d="M343.617 171.005H338.752V175.869H343.617V171.005Z" fill="#E6E6E6"/>
<path d="M346.931 161.064H342.066V165.929H346.931V161.064Z" fill="#E6E6E6"/>
<path d="M357.377 167.946L353.47 165.048L350.572 168.955L354.479 171.853L357.377 167.946Z" fill="#E6E6E6"/>
<path d="M366.167 176.565L362.26 173.667L359.362 177.575L363.269 180.473L366.167 176.565Z" fill="#E6E6E6"/>
<path d="M351.256 181.536L347.349 178.638L344.451 182.545L348.358 185.443L351.256 181.536Z" fill="#E6E6E6"/>
<path d="M362.679 159.118C363.228 159.118 363.673 158.673 363.673 158.124C363.673 157.575 363.228 157.13 362.679 157.13C362.13 157.13 361.685 157.575 361.685 158.124C361.685 158.673 362.13 159.118 362.679 159.118Z" fill="#3F3D56"/>
<path d="M342.466 152.491C343.015 152.491 343.46 152.046 343.46 151.497C343.46 150.948 343.015 150.503 342.466 150.503C341.917 150.503 341.472 150.948 341.472 151.497C341.472 152.046 341.917 152.491 342.466 152.491Z" fill="#3F3D56"/>
<path d="M359.366 145.532C359.915 145.532 360.36 145.087 360.36 144.538C360.36 143.989 359.915 143.544 359.366 143.544C358.817 143.544 358.372 143.989 358.372 144.538C358.372 145.087 358.817 145.532 359.366 145.532Z" fill="#3F3D56"/>
<path d="M200.229 217.796C260.372 217.796 309.127 169.041 309.127 108.898C309.127 48.7554 260.372 0 200.229 0C140.086 0 91.3306 48.7554 91.3306 108.898C91.3306 169.041 140.086 217.796 200.229 217.796Z" fill="#1BAC4B"/>
<path opacity="0.2" d="M200.229 188.383C181.84 188.383 164.019 182.007 149.805 170.341C135.59 158.675 125.859 142.441 122.272 124.405C118.684 106.369 121.462 87.6474 130.13 71.4297C138.799 55.2119 152.823 42.5016 169.812 35.4644C186.802 28.4272 205.705 27.4986 223.303 32.8367C240.9 38.1749 256.102 49.4495 266.319 64.7396C276.535 80.0296 281.134 98.389 279.331 116.69C277.529 134.99 269.437 152.1 256.434 165.103C249.07 172.507 240.311 178.377 230.663 182.373C221.016 186.369 210.671 188.412 200.229 188.383ZM200.229 34.3152C159.104 34.3152 125.646 67.773 125.646 108.898C125.646 150.023 159.104 183.481 200.229 183.481C241.354 183.481 274.812 150.023 274.812 108.898C274.812 67.773 241.354 34.3152 200.229 34.3152Z" fill="black"/>
<path d="M200.229 185.932C242.774 185.932 277.263 151.443 277.263 108.898C277.263 66.3536 242.774 31.8643 200.229 31.8643C157.684 31.8643 123.195 66.3536 123.195 108.898C123.195 151.443 157.684 185.932 200.229 185.932Z" fill="#3F3D56"/>
<path d="M142.94 78.0953C142.356 76.9511 142.003 75.7029 141.902 74.4222C141.8 73.1415 141.952 71.8533 142.349 70.6313C142.745 69.4093 143.379 68.2775 144.213 67.3005C145.048 66.3236 146.066 65.5206 147.211 64.9376C148.356 64.3546 149.605 64.003 150.885 63.9028C152.166 63.8026 153.454 63.9559 154.676 64.3538C155.897 64.7517 157.028 65.3865 158.005 66.2219C158.981 67.0573 159.783 68.0768 160.364 69.2223L182.128 111.96C182.713 113.104 183.066 114.353 183.167 115.633C183.269 116.914 183.117 118.202 182.72 119.424C182.323 120.646 181.69 121.778 180.856 122.755C180.021 123.732 179.003 124.535 177.858 125.118C176.713 125.701 175.464 126.053 174.183 126.153C172.903 126.253 171.615 126.1 170.393 125.702C169.171 125.304 168.04 124.669 167.064 123.834C166.088 122.998 165.286 121.979 164.704 120.833L142.94 78.0953Z" fill="#FF6584"/>
<path opacity="0.2" d="M145.368 82.8622L144.363 80.8897C149.376 76.9944 155.263 74.1297 161.787 72.0166L162.792 73.9891C155.731 75.4595 149.723 78.1806 145.368 82.8622Z" fill="black"/>
<path opacity="0.2" d="M150.055 92.0673L149.051 90.0947C154.064 86.1995 159.951 83.3348 166.475 81.2217L167.479 83.1942C160.418 84.6646 154.411 87.3857 150.055 92.0673Z" fill="black"/>
<path opacity="0.2" d="M154.743 101.273L153.739 99.3003C158.752 95.4051 164.639 92.5404 171.163 90.4272L172.167 92.3998C165.106 93.8702 159.099 96.5913 154.743 101.273Z" fill="black"/>
<path opacity="0.2" d="M159.431 110.478L158.426 108.505C163.439 104.61 169.326 101.745 175.85 99.6323L176.855 101.605C169.794 103.075 163.786 105.796 159.431 110.478Z" fill="black"/>
<path opacity="0.2" d="M164.118 119.683L163.114 117.71C168.127 113.815 174.014 110.95 180.538 108.837L181.542 110.81C174.481 112.28 168.474 115.001 164.118 119.683Z" fill="black"/>
<path d="M126.612 94.0949C126.028 92.9507 125.675 91.7026 125.574 90.4219C125.473 89.1413 125.625 87.8532 126.021 86.6313C126.418 85.4094 127.051 84.2777 127.886 83.3008C128.72 82.324 129.739 81.5211 130.884 80.9381C132.028 80.3552 133.277 80.0035 134.557 79.9033C135.838 79.8031 137.126 79.9563 138.348 80.3541C139.569 80.752 140.7 81.3866 141.676 82.2219C142.652 83.0571 143.454 84.0765 144.036 85.2218L165.8 127.96C166.974 130.27 167.182 132.952 166.379 135.415C165.577 137.879 163.829 139.923 161.52 141.099C159.211 142.275 156.53 142.486 154.065 141.686C151.601 140.886 149.555 139.141 148.376 136.833L126.612 94.0949Z" fill="#FF6584"/>
<path opacity="0.2" d="M129.04 98.8622L128.035 96.8897C133.048 92.9944 138.935 90.1297 145.459 88.0166L146.464 89.9891C139.403 91.4595 133.395 94.1806 129.04 98.8622Z" fill="black"/>
<path opacity="0.2" d="M133.727 108.067L132.723 106.095C137.736 102.2 143.623 99.3348 150.147 97.2217L151.151 99.1942C144.09 100.665 138.083 103.386 133.727 108.067Z" fill="black"/>
<path opacity="0.2" d="M138.415 117.272L137.411 115.3C142.424 111.405 148.311 108.54 154.835 106.427L155.839 108.399C148.778 109.87 142.771 112.591 138.415 117.272Z" fill="black"/>
<path opacity="0.2" d="M143.103 126.477L142.098 124.505C147.111 120.609 152.998 117.745 159.522 115.632L160.527 117.604C153.466 119.075 147.458 121.796 143.103 126.477Z" fill="black"/>
<path opacity="0.2" d="M147.79 135.682L146.786 133.71C151.799 129.815 157.686 126.95 164.21 124.837L165.214 126.809C158.153 128.28 152.146 131.001 147.79 135.682Z" fill="black"/>
<path d="M251.702 111.349L251.77 111.349C254.115 111.369 256.41 110.682 258.358 109.377C260.306 108.072 261.815 106.211 262.689 104.036C264.486 99.4921 265.392 94.645 265.357 89.759C265.235 69.0785 248.41 52.1126 227.731 51.8265C218.925 51.7032 210.346 54.6291 203.45 60.1081C196.554 65.5871 191.765 73.2822 189.895 81.8889C188.024 90.4955 189.188 99.4842 193.187 107.331C197.187 115.178 203.777 121.401 211.841 124.944C213.972 125.887 216.338 126.165 218.629 125.74C220.921 125.315 223.03 124.207 224.681 122.563C228.222 119.003 232.433 116.179 237.07 114.255C241.708 112.33 246.681 111.343 251.702 111.349Z" fill="#E6E6E6"/>
<path d="M232.093 99.7942C239.055 99.7942 244.698 94.1505 244.698 87.1886C244.698 80.2267 239.055 74.583 232.093 74.583C225.131 74.583 219.487 80.2267 219.487 87.1886C219.487 94.1505 225.131 99.7942 232.093 99.7942Z" fill="#F9A825"/>
<path d="M204.696 85.7713C205.517 85.7713 206.181 85.1064 206.181 84.2863C206.181 83.4661 205.517 82.8013 204.696 82.8013C203.876 82.8013 203.211 83.4661 203.211 84.2863C203.211 85.1064 203.876 85.7713 204.696 85.7713Z" fill="#3F3D56"/>
<path d="M155.675 87.1717C156.495 87.1717 157.16 86.5068 157.16 85.6867C157.16 84.8665 156.495 84.2017 155.675 84.2017C154.855 84.2017 154.19 84.8665 154.19 85.6867C154.19 86.5068 154.855 87.1717 155.675 87.1717Z" fill="#3F3D56"/>
<path d="M212.611 70.3811C213.431 70.3811 214.096 69.7163 214.096 68.8961C214.096 68.076 213.431 67.4111 212.611 67.4111C211.791 67.4111 211.126 68.076 211.126 68.8961C211.126 69.7163 211.791 70.3811 212.611 70.3811Z" fill="#3F3D56"/>
<path d="M212.568 113.184C213.389 113.184 214.053 112.519 214.053 111.699C214.053 110.879 213.389 110.214 212.568 110.214C211.748 110.214 211.083 110.879 211.083 111.699C211.083 112.519 211.748 113.184 212.568 113.184Z" fill="#3F3D56"/>
<path d="M241.982 67.3142C242.802 67.3142 243.467 66.6494 243.467 65.8292C243.467 65.0091 242.802 64.3442 241.982 64.3442C241.161 64.3442 240.497 65.0091 240.497 65.8292C240.497 66.6494 241.161 67.3142 241.982 67.3142Z" fill="#3F3D56"/>
<path d="M146.039 107.932C146.859 107.932 147.524 107.267 147.524 106.447C147.524 105.627 146.859 104.962 146.039 104.962C145.219 104.962 144.554 105.627 144.554 106.447C144.554 107.267 145.219 107.932 146.039 107.932Z" fill="#3F3D56"/>
<path d="M156.894 129.292C157.714 129.292 158.379 128.627 158.379 127.807C158.379 126.986 157.714 126.322 156.894 126.322C156.074 126.322 155.409 126.986 155.409 127.807C155.409 128.627 156.074 129.292 156.894 129.292Z" fill="#3F3D56"/>
<path d="M225.09 136.21C228.184 136.21 230.692 133.702 230.692 130.608C230.692 127.514 228.184 125.005 225.09 125.005C221.996 125.005 219.487 127.514 219.487 130.608C219.487 133.702 221.996 136.21 225.09 136.21Z" fill="#FF6584"/>
<path opacity="0.2" d="M229.292 130.958C229.292 132.072 228.849 133.141 228.061 133.929C227.273 134.717 226.204 135.16 225.09 135.16C223.976 135.16 222.907 134.717 222.119 133.929C221.331 133.141 220.888 132.072 220.888 130.958" fill="black"/>
<path opacity="0.2" d="M220.888 130.258C220.888 129.143 221.331 128.075 222.119 127.287C222.907 126.499 223.976 126.056 225.09 126.056C226.204 126.056 227.273 126.499 228.061 127.287C228.849 128.075 229.292 129.143 229.292 130.258" fill="black"/>
<path d="M222.989 129.207C223.182 129.207 223.339 128.972 223.339 128.682C223.339 128.392 223.182 128.157 222.989 128.157C222.795 128.157 222.639 128.392 222.639 128.682C222.639 128.972 222.795 129.207 222.989 129.207Z" fill="#FF6584"/>
<path d="M225.09 128.507C225.283 128.507 225.44 128.272 225.44 127.982C225.44 127.691 225.283 127.456 225.09 127.456C224.897 127.456 224.74 127.691 224.74 127.982C224.74 128.272 224.897 128.507 225.09 128.507Z" fill="#FF6584"/>
<path d="M225.09 133.059C225.283 133.059 225.44 132.824 225.44 132.534C225.44 132.243 225.283 132.008 225.09 132.008C224.897 132.008 224.74 132.243 224.74 132.534C224.74 132.824 224.897 133.059 225.09 133.059Z" fill="#FF6584"/>
<path d="M227.191 130.258C227.384 130.258 227.541 130.023 227.541 129.733C227.541 129.442 227.384 129.207 227.191 129.207C226.998 129.207 226.841 129.442 226.841 129.733C226.841 130.023 226.998 130.258 227.191 130.258Z" fill="#FF6584"/>
<path d="M226.841 134.109C227.034 134.109 227.191 133.874 227.191 133.584C227.191 133.294 227.034 133.059 226.841 133.059C226.647 133.059 226.491 133.294 226.491 133.584C226.491 133.874 226.647 134.109 226.841 134.109Z" fill="#FF6584"/>
<path d="M222.639 132.359C222.832 132.359 222.989 132.123 222.989 131.833C222.989 131.543 222.832 131.308 222.639 131.308C222.445 131.308 222.289 131.543 222.289 131.833C222.289 132.123 222.445 132.359 222.639 132.359Z" fill="#FF6584"/>
<path d="M236.295 121.154C239.389 121.154 241.897 118.645 241.897 115.551C241.897 112.457 239.389 109.949 236.295 109.949C233.201 109.949 230.692 112.457 230.692 115.551C230.692 118.645 233.201 121.154 236.295 121.154Z" fill="#FF6584"/>
<path opacity="0.2" d="M240.496 115.901C240.496 117.016 240.054 118.085 239.266 118.873C238.478 119.661 237.409 120.103 236.295 120.103C235.18 120.103 234.111 119.661 233.323 118.873C232.535 118.085 232.093 117.016 232.093 115.901" fill="black"/>
<path opacity="0.2" d="M232.093 115.201C232.093 114.086 232.535 113.018 233.323 112.23C234.111 111.442 235.18 110.999 236.295 110.999C237.409 110.999 238.478 111.442 239.266 112.23C240.054 113.018 240.496 114.086 240.496 115.201" fill="black"/>
<path d="M234.194 114.151C234.387 114.151 234.544 113.915 234.544 113.625C234.544 113.335 234.387 113.1 234.194 113.1C234.001 113.1 233.844 113.335 233.844 113.625C233.844 113.915 234.001 114.151 234.194 114.151Z" fill="#FF6584"/>
<path d="M236.295 113.45C236.488 113.45 236.645 113.215 236.645 112.925C236.645 112.635 236.488 112.4 236.295 112.4C236.102 112.4 235.945 112.635 235.945 112.925C235.945 113.215 236.102 113.45 236.295 113.45Z" fill="#FF6584"/>
<path d="M236.295 118.002C236.488 118.002 236.645 117.767 236.645 117.477C236.645 117.187 236.488 116.952 236.295 116.952C236.102 116.952 235.945 117.187 235.945 117.477C235.945 117.767 236.102 118.002 236.295 118.002Z" fill="#FF6584"/>
<path d="M238.396 115.201C238.589 115.201 238.746 114.966 238.746 114.676C238.746 114.386 238.589 114.151 238.396 114.151C238.202 114.151 238.045 114.386 238.045 114.676C238.045 114.966 238.202 115.201 238.396 115.201Z" fill="#FF6584"/>
<path d="M238.045 119.053C238.239 119.053 238.396 118.818 238.396 118.527C238.396 118.237 238.239 118.002 238.045 118.002C237.852 118.002 237.695 118.237 237.695 118.527C237.695 118.818 237.852 119.053 238.045 119.053Z" fill="#FF6584"/>
<path d="M233.844 117.302C234.037 117.302 234.194 117.067 234.194 116.777C234.194 116.487 234.037 116.251 233.844 116.251C233.65 116.251 233.494 116.487 233.494 116.777C233.494 117.067 233.65 117.302 233.844 117.302Z" fill="#FF6584"/>
<path d="M247.5 128.857C250.594 128.857 253.102 126.349 253.102 123.255C253.102 120.16 250.594 117.652 247.5 117.652C244.406 117.652 241.897 120.16 241.897 123.255C241.897 126.349 244.406 128.857 247.5 128.857Z" fill="#1BAC4B"/>
<path opacity="0.2" d="M251.702 123.605C251.702 124.719 251.259 125.788 250.471 126.576C249.683 127.364 248.614 127.807 247.5 127.807C246.385 127.807 245.317 127.364 244.529 126.576C243.741 125.788 243.298 124.719 243.298 123.605" fill="black"/>
<path opacity="0.2" d="M243.298 122.905C243.298 121.79 243.741 120.721 244.529 119.933C245.317 119.145 246.385 118.703 247.5 118.703C248.614 118.703 249.683 119.145 250.471 119.933C251.259 120.721 251.702 121.79 251.702 122.905" fill="black"/>
<path d="M245.399 121.854C245.592 121.854 245.749 121.619 245.749 121.329C245.749 121.039 245.592 120.803 245.399 120.803C245.206 120.803 245.049 121.039 245.049 121.329C245.049 121.619 245.206 121.854 245.399 121.854Z" fill="#1BAC4B"/>
<path d="M247.5 121.154C247.693 121.154 247.85 120.919 247.85 120.629C247.85 120.338 247.693 120.103 247.5 120.103C247.306 120.103 247.149 120.338 247.149 120.629C247.149 120.919 247.306 121.154 247.5 121.154Z" fill="#1BAC4B"/>
<path d="M247.5 125.706C247.693 125.706 247.85 125.471 247.85 125.181C247.85 124.89 247.693 124.655 247.5 124.655C247.306 124.655 247.149 124.89 247.149 125.181C247.149 125.471 247.306 125.706 247.5 125.706Z" fill="#1BAC4B"/>
<path d="M249.601 122.904C249.794 122.904 249.951 122.669 249.951 122.379C249.951 122.089 249.794 121.854 249.601 121.854C249.407 121.854 249.25 122.089 249.25 122.379C249.25 122.669 249.407 122.904 249.601 122.904Z" fill="#1BAC4B"/>
<path d="M249.251 126.756C249.444 126.756 249.601 126.521 249.601 126.231C249.601 125.941 249.444 125.706 249.251 125.706C249.057 125.706 248.9 125.941 248.9 126.231C248.9 126.521 249.057 126.756 249.251 126.756Z" fill="#1BAC4B"/>
<path d="M245.049 125.005C245.242 125.005 245.399 124.77 245.399 124.48C245.399 124.19 245.242 123.955 245.049 123.955C244.856 123.955 244.699 124.19 244.699 124.48C244.699 124.77 244.856 125.005 245.049 125.005Z" fill="#1BAC4B"/>
<path d="M219.487 129.557C222.581 129.557 225.09 127.049 225.09 123.955C225.09 120.861 222.581 118.352 219.487 118.352C216.393 118.352 213.885 120.861 213.885 123.955C213.885 127.049 216.393 129.557 219.487 129.557Z" fill="#1BAC4B"/>
<path opacity="0.2" d="M223.689 124.305C223.689 125.419 223.247 126.488 222.459 127.276C221.671 128.064 220.602 128.507 219.488 128.507C218.373 128.507 217.304 128.064 216.516 127.276C215.728 126.488 215.286 125.419 215.286 124.305" fill="black"/>
<path opacity="0.2" d="M215.286 123.605C215.286 122.49 215.728 121.422 216.516 120.634C217.304 119.846 218.373 119.403 219.488 119.403C220.602 119.403 221.671 119.846 222.459 120.634C223.247 121.422 223.689 122.49 223.689 123.605" fill="black"/>
<path d="M217.386 122.554C217.58 122.554 217.736 122.319 217.736 122.029C217.736 121.739 217.58 121.504 217.386 121.504C217.193 121.504 217.036 121.739 217.036 122.029C217.036 122.319 217.193 122.554 217.386 122.554Z" fill="#1BAC4B"/>
<path d="M219.487 121.854C219.681 121.854 219.838 121.619 219.838 121.329C219.838 121.039 219.681 120.803 219.487 120.803C219.294 120.803 219.137 121.039 219.137 121.329C219.137 121.619 219.294 121.854 219.487 121.854Z" fill="#1BAC4B"/>
<path d="M219.487 126.406C219.681 126.406 219.838 126.171 219.838 125.881C219.838 125.591 219.681 125.355 219.487 125.355C219.294 125.355 219.137 125.591 219.137 125.881C219.137 126.171 219.294 126.406 219.487 126.406Z" fill="#1BAC4B"/>
<path d="M221.588 123.605C221.782 123.605 221.939 123.37 221.939 123.079C221.939 122.789 221.782 122.554 221.588 122.554C221.395 122.554 221.238 122.789 221.238 123.079C221.238 123.37 221.395 123.605 221.588 123.605Z" fill="#1BAC4B"/>
<path d="M221.238 127.456C221.432 127.456 221.588 127.221 221.588 126.931C221.588 126.641 221.432 126.406 221.238 126.406C221.045 126.406 220.888 126.641 220.888 126.931C220.888 127.221 221.045 127.456 221.238 127.456Z" fill="#1BAC4B"/>
<path d="M217.036 125.706C217.23 125.706 217.386 125.471 217.386 125.181C217.386 124.89 217.23 124.655 217.036 124.655C216.843 124.655 216.686 124.89 216.686 125.181C216.686 125.471 216.843 125.706 217.036 125.706Z" fill="#1BAC4B"/>
<path d="M232.093 132.008C235.187 132.008 237.695 129.5 237.695 126.406C237.695 123.312 235.187 120.803 232.093 120.803C228.999 120.803 226.49 123.312 226.49 126.406C226.49 129.5 228.999 132.008 232.093 132.008Z" fill="#1BAC4B"/>
<path opacity="0.2" d="M236.295 126.756C236.295 127.308 236.186 127.854 235.975 128.364C235.764 128.874 235.454 129.337 235.064 129.727C234.674 130.117 234.211 130.427 233.701 130.638C233.191 130.849 232.645 130.958 232.093 130.958C231.541 130.958 230.995 130.849 230.485 130.638C229.975 130.427 229.512 130.117 229.122 129.727C228.732 129.337 228.422 128.874 228.211 128.364C228 127.854 227.891 127.308 227.891 126.756" fill="black"/>
<path opacity="0.2" d="M227.891 126.056C227.891 125.504 228 124.958 228.211 124.448C228.422 123.938 228.732 123.475 229.122 123.085C229.512 122.695 229.975 122.385 230.485 122.174C230.995 121.963 231.541 121.854 232.093 121.854C232.645 121.854 233.191 121.963 233.701 122.174C234.211 122.385 234.674 122.695 235.064 123.085C235.454 123.475 235.764 123.938 235.975 124.448C236.186 124.958 236.295 125.504 236.295 126.056" fill="black"/>
<path d="M229.992 125.005C230.186 125.005 230.342 124.77 230.342 124.48C230.342 124.19 230.186 123.955 229.992 123.955C229.799 123.955 229.642 124.19 229.642 124.48C229.642 124.77 229.799 125.005 229.992 125.005Z" fill="#1BAC4B"/>
<path d="M232.093 124.305C232.286 124.305 232.443 124.07 232.443 123.78C232.443 123.49 232.286 123.255 232.093 123.255C231.899 123.255 231.743 123.49 231.743 123.78C231.743 124.07 231.899 124.305 232.093 124.305Z" fill="#1BAC4B"/>
<path d="M232.093 128.857C232.286 128.857 232.443 128.622 232.443 128.332C232.443 128.042 232.286 127.807 232.093 127.807C231.899 127.807 231.743 128.042 231.743 128.332C231.743 128.622 231.899 128.857 232.093 128.857Z" fill="#1BAC4B"/>
<path d="M234.194 126.056C234.387 126.056 234.544 125.821 234.544 125.531C234.544 125.241 234.387 125.005 234.194 125.005C234.001 125.005 233.844 125.241 233.844 125.531C233.844 125.821 234.001 126.056 234.194 126.056Z" fill="#1BAC4B"/>
<path d="M233.844 129.907C234.037 129.907 234.194 129.672 234.194 129.382C234.194 129.092 234.037 128.857 233.844 128.857C233.65 128.857 233.494 129.092 233.494 129.382C233.494 129.672 233.65 129.907 233.844 129.907Z" fill="#1BAC4B"/>
<path d="M229.642 128.157C229.835 128.157 229.992 127.922 229.992 127.631C229.992 127.341 229.835 127.106 229.642 127.106C229.448 127.106 229.292 127.341 229.292 127.631C229.292 127.922 229.448 128.157 229.642 128.157Z" fill="#1BAC4B"/>
<path d="M240.847 137.961C243.941 137.961 246.449 135.453 246.449 132.359C246.449 129.264 243.941 126.756 240.847 126.756C237.752 126.756 235.244 129.264 235.244 132.359C235.244 135.453 237.752 137.961 240.847 137.961Z" fill="#FF6584"/>
<path opacity="0.2" d="M245.049 132.709C245.049 133.823 244.606 134.892 243.818 135.68C243.03 136.468 241.961 136.911 240.847 136.911C239.732 136.911 238.664 136.468 237.876 135.68C237.088 134.892 236.645 133.823 236.645 132.709" fill="black"/>
<path opacity="0.2" d="M236.645 132.008C236.645 130.894 237.088 129.825 237.876 129.037C238.664 128.249 239.732 127.807 240.847 127.807C241.961 127.807 243.03 128.249 243.818 129.037C244.606 129.825 245.049 130.894 245.049 132.008" fill="black"/>
<path d="M238.746 130.958C238.939 130.958 239.096 130.723 239.096 130.433C239.096 130.143 238.939 129.907 238.746 129.907C238.552 129.907 238.396 130.143 238.396 130.433C238.396 130.723 238.552 130.958 238.746 130.958Z" fill="#FF6584"/>
<path d="M240.847 130.258C241.04 130.258 241.197 130.023 241.197 129.733C241.197 129.442 241.04 129.207 240.847 129.207C240.653 129.207 240.497 129.442 240.497 129.733C240.497 130.023 240.653 130.258 240.847 130.258Z" fill="#FF6584"/>
<path d="M240.847 134.81C241.04 134.81 241.197 134.575 241.197 134.285C241.197 133.994 241.04 133.759 240.847 133.759C240.653 133.759 240.497 133.994 240.497 134.285C240.497 134.575 240.653 134.81 240.847 134.81Z" fill="#FF6584"/>
<path d="M242.948 132.008C243.141 132.008 243.298 131.773 243.298 131.483C243.298 131.193 243.141 130.958 242.948 130.958C242.754 130.958 242.598 131.193 242.598 131.483C242.598 131.773 242.754 132.008 242.948 132.008Z" fill="#FF6584"/>
<path d="M242.598 135.86C242.791 135.86 242.948 135.625 242.948 135.335C242.948 135.045 242.791 134.81 242.598 134.81C242.404 134.81 242.248 135.045 242.248 135.335C242.248 135.625 242.404 135.86 242.598 135.86Z" fill="#FF6584"/>
<path d="M238.396 134.109C238.589 134.109 238.746 133.874 238.746 133.584C238.746 133.294 238.589 133.059 238.396 133.059C238.202 133.059 238.045 133.294 238.045 133.584C238.045 133.874 238.202 134.109 238.396 134.109Z" fill="#FF6584"/>
<path d="M168.799 112.484C169.62 112.484 170.284 111.819 170.284 110.999C170.284 110.179 169.62 109.514 168.799 109.514C167.979 109.514 167.314 110.179 167.314 110.999C167.314 111.819 167.979 112.484 168.799 112.484Z" fill="#3F3D56"/>
<path d="M209.164 164.901L173.5 155.01L174.866 149.936L210.531 159.827L209.164 164.901Z" fill="#F9A825"/>
<path d="M203.936 163.205C191.723 165.543 179.177 165.543 166.964 163.205V157.944C179.205 159.973 191.696 159.973 203.936 157.944V163.205Z" fill="#F9A825"/>
<path d="M207.737 147.423C195.524 149.761 182.978 149.761 170.765 147.423V142.163C183.006 144.192 195.497 144.192 207.737 142.163V147.423Z" fill="#F9A825"/>
<path d="M220.522 153.736C208.309 156.074 195.763 156.074 183.55 153.736V148.476C195.79 150.504 208.281 150.504 220.522 148.476V153.736Z" fill="#F9A825"/>
<path d="M223.632 159.698C211.418 162.036 198.873 162.036 186.66 159.698V154.438C198.9 156.466 211.391 156.466 223.632 154.438V159.698Z" fill="#F9A825"/>
<path d="M234.473 167.488L197.997 173.615L197.151 168.425L233.627 162.298L234.473 167.488Z" fill="#F9A825"/>
<path d="M229.025 168.163C218.912 175.452 207.514 180.768 195.43 183.831L193.266 179.051C205.245 175.697 216.593 170.404 226.861 163.383L229.025 168.163Z" fill="#F9A825"/>
<path d="M225.986 152.212C215.873 159.502 204.475 164.818 192.391 167.881L190.227 163.101C202.205 159.747 213.554 154.454 223.822 147.432L225.986 152.212Z" fill="#F9A825"/>
<path d="M240.2 152.53C230.087 159.82 218.689 165.136 206.605 168.199L204.441 163.419C216.419 160.065 227.768 154.772 238.036 147.75L240.2 152.53Z" fill="#F9A825"/>
<path d="M245.478 156.629C235.365 163.919 223.968 169.235 211.883 172.298L209.719 167.518C221.698 164.164 233.046 158.871 243.314 151.849L245.478 156.629Z" fill="#F9A825"/>
<path d="M201.279 146.365H199.528V148.116H201.279V146.365Z" fill="#00BF71"/>
<path d="M206.532 176.828H204.781V178.579H206.532V176.828Z" fill="#00BF71"/>
<path d="M178.519 146.365H176.769V148.116H178.519V146.365Z" fill="#00BF71"/>
<path d="M219.137 168.074H217.386V169.825H219.137V168.074Z" fill="#00BF71"/>
<path d="M220.188 157.92H218.437V159.671H220.188V157.92Z" fill="#00BF71"/>
<path d="M191.307 153.126L189.278 151.75L188.492 152.909L190.52 154.285L191.307 153.126Z" fill="#00BF71"/>
<path d="M211.966 156.978L209.938 155.602L209.151 156.761L211.179 158.137L211.966 156.978Z" fill="#00BF71"/>
<path d="M186.754 163.631L184.726 162.255L183.94 163.414L185.968 164.79L186.754 163.631Z" fill="#00BF71"/>
<path d="M199.595 163.529L200.971 161.501L199.812 160.714L198.436 162.743L199.595 163.529Z" fill="#00BF71"/>
<path d="M209.049 165.98L210.425 163.952L209.266 163.166L207.89 165.194L209.049 165.98Z" fill="#00BF71"/>
<path d="M234.263 157.576L235.639 155.548L234.48 154.761L233.104 156.79L234.263 157.576Z" fill="#00BF71"/>
<path d="M400 217.679H0V218.689H400V217.679Z" fill="#3F3D56"/>
</g>
<defs>
<clipPath id="clip0_1853_241">
<rect width="400" height="218.689" fill="white"/>
</clipPath>
</defs>
</svg>
