<svg width="300" height="300" viewBox="0 0 300 300" fill="none" xmlns="http://www.w3.org/2000/svg">
<mask id="mask0_1853_192" style="mask-type:luminance" maskUnits="userSpaceOnUse" x="0" y="0" width="300" height="300">
<path d="M300 0H0V300H300V0Z" fill="white"/>
</mask>
<g mask="url(#mask0_1853_192)">
<path d="M108.34 252.281C108.34 250.043 110.155 248.229 112.393 248.229H220C222.238 248.229 224.052 250.043 224.052 252.281V286.253C224.052 288.491 222.238 290.306 220 290.306H112.393C110.155 290.306 108.34 288.491 108.34 286.253V252.281Z" fill="#E5E5E5"/>
<path d="M120.363 55.1255C120.363 68.8196 109.261 79.9209 95.5669 79.9209C81.8727 79.9209 70.7715 68.8196 70.7715 55.1255C70.7715 41.4313 81.8727 30.3301 95.5669 30.3301C109.261 30.3301 120.363 41.4313 120.363 55.1255Z" fill="#1BAC4B"/>
<path d="M197.315 25.4662C198.888 23.8746 201.454 23.86 203.046 25.4337L277.191 98.7423C278.782 100.316 278.797 102.881 277.223 104.473L158.037 225.019C156.463 226.611 153.897 226.626 152.306 225.052L78.1608 151.743C76.5692 150.17 76.5547 147.604 78.1283 146.012L197.315 25.4662Z" fill="white"/>
<path fill-rule="evenodd" clip-rule="evenodd" d="M196.739 24.8963C198.628 22.9864 201.707 22.969 203.617 24.8573L277.762 98.1659C279.672 100.054 279.689 103.133 277.801 105.043L158.614 225.589C156.726 227.499 153.647 227.517 151.737 225.628L77.5914 152.32C75.6815 150.431 75.664 147.352 77.5524 145.442L196.739 24.8963ZM202.477 26.01C201.204 24.7511 199.151 24.7628 197.892 26.036L78.7051 146.582C77.4462 147.855 77.4578 149.908 78.7311 151.167L152.877 224.476C154.15 225.734 156.202 225.723 157.46 224.45L276.648 103.903C277.907 102.63 277.894 100.577 276.621 99.3187L202.477 26.01Z" fill="#1BAC4B"/>
<path d="M156.546 25.0878C157.362 23.0034 159.712 21.9748 161.797 22.7901L258.898 60.776C260.983 61.5914 262.011 63.9421 261.196 66.0264L199.438 223.896C198.622 225.981 196.272 227.009 194.187 226.194L97.086 188.208C95.0017 187.393 93.973 185.042 94.7884 182.958L156.546 25.0878Z" fill="white"/>
<path fill-rule="evenodd" clip-rule="evenodd" d="M155.791 24.7924C156.77 22.2912 159.591 21.0568 162.092 22.0352L259.194 60.0211C261.695 60.9996 262.929 63.8204 261.951 66.3216L200.193 224.191C199.214 226.692 196.393 227.926 193.892 226.948L96.7909 188.962C94.2897 187.983 93.0553 185.163 94.0337 182.661L155.791 24.7924ZM161.501 23.5449C159.834 22.8925 157.953 23.7155 157.301 25.383L95.5433 183.252C94.891 184.919 95.714 186.8 97.3815 187.452L194.483 225.438C196.15 226.091 198.031 225.268 198.683 223.6L260.441 65.7311C261.093 64.0636 260.27 62.183 258.603 61.5307L161.501 23.5449Z" fill="#3E3D3D"/>
<path fill-rule="evenodd" clip-rule="evenodd" d="M220.16 85.4617C225.605 87.5915 231.745 84.9045 233.875 79.4601C236.004 74.0157 233.317 67.8756 227.873 65.7458C222.429 63.616 216.289 66.3029 214.159 71.7473C212.029 77.1917 214.716 83.3319 220.16 85.4617ZM219.57 86.9713C225.848 89.4273 232.928 86.3288 235.384 80.0507C237.84 73.7726 234.742 66.6922 228.464 64.2362C222.185 61.7802 215.105 64.8787 212.649 71.1568C210.193 77.4349 213.292 84.5153 219.57 86.9713Z" fill="#1BAC4B"/>
<path d="M230.783 91.81C228.327 98.0881 221.246 101.186 214.968 98.7306C208.69 96.2746 205.591 89.1942 208.047 82.9161C210.503 76.638 217.584 73.5395 223.862 75.9955C230.14 78.4515 233.239 85.5319 230.783 91.81Z" fill="#1BAC4B"/>
<path d="M178.407 29.2871L200.359 37.8743L135.648 203.291L113.696 194.704L178.407 29.2871Z" fill="#1BAC4B"/>
<path d="M68.8928 100.583C68.8928 109.09 61.8284 115.987 53.1139 115.987C44.3995 115.987 37.335 109.09 37.335 100.583C37.335 92.0767 44.3995 85.1804 53.1139 85.1804C61.8284 85.1804 68.8928 92.0767 68.8928 100.583Z" fill="#2F2E40"/>
<path fill-rule="evenodd" clip-rule="evenodd" d="M64.353 97.4043L46.8404 108.662L40.8716 99.0205L44.3173 96.8875L48.1164 103.024L62.1616 93.9954L64.353 97.4043Z" fill="white"/>
<path fill-rule="evenodd" clip-rule="evenodd" d="M-0.292969 291.057C-0.292969 290.61 0.0699073 290.247 0.517538 290.247H299.19C299.638 290.247 300 290.61 300 291.057C300 291.505 299.638 291.868 299.19 291.868H0.517538C0.0699073 291.868 -0.292969 291.505 -0.292969 291.057Z" fill="#3E3D3D"/>
<path fill-rule="evenodd" clip-rule="evenodd" d="M179.079 288.622C179.253 283.224 178.743 274.038 175.587 268.516C175.541 268.434 175.494 268.353 175.447 268.271C174.743 267.051 174.012 265.872 173.273 264.679C169.304 258.272 165.07 251.439 163.19 235.455C161.508 221.164 157.955 180.289 156.061 157.773C156.047 157.612 156.042 157.452 156.044 157.293C156.078 154.914 157.859 152.885 160.282 153.015C168.119 153.435 178.744 157.394 180.471 171.213C181.175 176.838 181.797 182.705 182.397 188.355C184.039 203.833 185.508 217.675 187.985 220.428C188.323 220.803 188.716 221.132 189.149 221.419C192.183 223.427 197.221 223.386 199.631 223.058L228.935 147.169C237.075 156.686 256.21 179.102 258.614 185.113C260.356 189.467 260.079 190.415 259.539 192.269C259.146 193.615 258.614 195.439 258.614 199.389C258.614 208.781 258.614 224.185 253.731 233.577C248.847 242.969 243.963 259.875 243.963 290.681H178.969C179.016 290.087 179.054 289.393 179.079 288.622Z" fill="#EFCB96"/>
<path fill-rule="evenodd" clip-rule="evenodd" d="M95.9423 36.5691C97.0613 36.5691 97.9685 37.4763 97.9685 38.5954V40.3736C102.542 40.4276 106.233 44.1522 106.233 48.739H102.181C102.181 46.3567 100.249 44.4255 97.8677 44.4255H94.4395C91.8238 44.4255 89.7034 46.5459 89.7034 49.1616C89.7034 51.7773 91.8238 53.8977 94.4395 53.8977H97.8677C102.488 53.8977 106.233 57.6433 106.233 62.2637C106.233 66.8505 102.542 70.5751 97.9685 70.6291V72.4073C97.9685 73.5264 97.0613 74.4336 95.9423 74.4336C94.8232 74.4336 93.916 73.5264 93.916 72.4073V70.6297H93.1716C89.018 70.6297 85.6509 67.2626 85.6509 63.109H89.7034C89.7034 65.0245 91.2562 66.5772 93.1716 66.5772H97.8677C100.249 66.5772 102.181 64.646 102.181 62.2637C102.181 59.8815 100.249 57.9503 97.8677 57.9503H94.4395C89.5857 57.9503 85.6509 54.0155 85.6509 49.1616C85.6509 44.4835 89.3059 40.6591 93.916 40.3883V38.5954C93.916 37.4763 94.8232 36.5691 95.9423 36.5691Z" fill="white"/>
</g>
</svg>
