<svg width="24" height="24" viewBox="0 0 24 24" fill="none" xmlns="http://www.w3.org/2000/svg">
<path d="M11.5788 12.056C14.2176 12.056 16.3568 9.91682 16.3568 7.278C16.3568 4.63918 14.2176 2.5 11.5788 2.5C8.93996 2.5 6.80078 4.63918 6.80078 7.278C6.80078 9.91682 8.93996 12.056 11.5788 12.056Z" stroke="#1BAC4B" stroke-width="1.5" stroke-linecap="round" stroke-linejoin="round"/>
<path fill-rule="evenodd" clip-rule="evenodd" d="M4.00002 18.7013C3.99875 18.3654 4.07387 18.0336 4.21971 17.7311C4.67738 16.8157 5.968 16.3306 7.03893 16.1109C7.81129 15.9461 8.59432 15.836 9.38218 15.7814C10.8409 15.6533 12.308 15.6533 13.7666 15.7814C14.5544 15.8366 15.3374 15.9467 16.1099 16.1109C17.1808 16.3306 18.4714 16.77 18.9291 17.7311C19.2224 18.3479 19.2224 19.0639 18.9291 19.6807C18.4714 20.6418 17.1808 21.0812 16.1099 21.2917C15.3384 21.4633 14.5551 21.5766 13.7666 21.6304C12.5794 21.731 11.3866 21.7494 10.1968 21.6853C9.92223 21.6853 9.65678 21.6853 9.38218 21.6304C8.59665 21.5772 7.81633 21.464 7.04809 21.2917C5.968 21.0812 4.68653 20.6418 4.21971 19.6807C4.07461 19.3746 3.99957 19.04 4.00002 18.7013Z" stroke="#1BAC4B" stroke-width="1.5" stroke-linecap="round" stroke-linejoin="round"/>
</svg>
