<svg width="24" height="24" viewBox="0 0 24 24" fill="none" xmlns="http://www.w3.org/2000/svg">
<g clip-path="url(#clip0_1944_2)">
<path d="M21.5473 0.69073L21.5265 0.7075L21.5077 0.726389L9.4602 12.7791C9.44047 12.7962 9.4162 12.8072 9.39029 12.8108C9.36262 12.8146 9.33445 12.8098 9.30963 12.797L9.30968 12.7969L9.3009 12.7926L0.57715 8.50486C0.576995 8.50478 0.57684 8.5047 0.576685 8.50462C0.554191 8.49336 0.535445 8.4758 0.522724 8.45409C0.509915 8.43223 0.503771 8.4071 0.505048 8.3818C0.506325 8.35649 0.514967 8.33211 0.529912 8.31165C0.544814 8.29124 0.565334 8.27563 0.588965 8.2667C0.589034 8.26667 0.589102 8.26665 0.589171 8.26662L21.3694 0.489241L21.3899 0.481581L21.4096 0.472165C21.4384 0.458434 21.4712 0.455739 21.5018 0.464594C21.5324 0.473449 21.5587 0.493236 21.5757 0.5202C21.5927 0.547166 21.5992 0.579428 21.5939 0.610862C21.5887 0.642297 21.5721 0.670719 21.5473 0.69073ZM11.6086 14.3238L23.4932 2.434C23.5133 2.45059 23.5281 2.47295 23.5355 2.49826C23.5443 2.52887 23.5416 2.56167 23.5279 2.59043L23.5184 2.61022L23.5108 2.63076L15.7384 23.417L15.7384 23.417L15.7369 23.4211C15.7282 23.4451 15.7125 23.466 15.692 23.4812C15.6714 23.4964 15.6468 23.5052 15.6212 23.5065C15.5957 23.5077 15.5703 23.5015 15.5484 23.4884C15.5264 23.4754 15.5087 23.4561 15.4976 23.4331L15.4961 23.43L11.2128 14.7047L11.213 14.7046L11.207 14.6931C11.2067 14.6925 11.2064 14.692 11.2061 14.6914C11.2287 14.6689 11.2556 14.6432 11.2864 14.6148C11.3381 14.5672 11.3918 14.5202 11.4435 14.4748L11.4592 14.4611L11.4658 14.4553C11.5091 14.4174 11.568 14.3657 11.6086 14.3238ZM23.6296 2.23518L23.6108 2.21645L23.3071 1.91289L23.6353 2.17765L23.6605 2.19802C23.6495 2.21282 23.6388 2.2252 23.6296 2.23518Z" stroke="white"/>
</g>
<defs>
<clipPath id="clip0_1944_2">
<rect width="24" height="24" fill="white"/>
</clipPath>
</defs>
</svg>
